<?xml version="1.0" encoding="UTF-8"?>
<svg id="Layer_2" data-name="Layer 2" xmlns="http://www.w3.org/2000/svg" viewBox="0 0 157.02 173.01">
  <defs>
    <style>
      .cls-1 {
        fill: #fff;
      }

      .cls-2 {
        fill: #023039;
      }
    </style>
  </defs>
  <g id="Layer_2-2" data-name="Layer 2">
    <g>
      <path class="cls-2" d="m0,0h127.02c16.56,0,30,13.44,30,30v113.01c0,16.56-13.44,30-30,30H0V0h0Z"/>
      <g>
        <path class="cls-1" d="m37.14,37.97h82.81v24.94h-63.06c-10.9,0-19.75-8.85-19.75-19.75v-5.19h0Z" transform="translate(157.09 100.89) rotate(180)"/>
        <path class="cls-1" d="m58.3,96.85h5.58v38.19h-26.8v-16.96c0-11.72,9.51-21.23,21.23-21.23Z" transform="translate(100.95 231.88) rotate(180)"/>
        <path class="cls-1" d="m56.84,67.54h63.06v24.94H37.09v-5.19c0-10.9,8.85-19.75,19.75-19.75Z" transform="translate(157 160.03) rotate(-180)"/>
      </g>
    </g>
  </g>
</svg>